# xmcd
#
# Track frame offsets:
# 150
# 17197
# 35420
# 52520
# 66312
# 81927
# 101532
# 127227
# 145627
# 169670
#
# Disc length: 2495 seconds
#
#
# Revision: 5
# Processed by: cddbd v1.5.1PL2 Copyright (c) Steve Scherf et al.
# Submitted via: FreeRIP 2.942 
#
DISCID=8009bd0a
DTITLE=UB40 - The Best Of UB40 - Volume Two
DYEAR=1995
DGENRE=Reggae
TTITLE0=Where Did I Go Wrong?
TTITLE1=Here I Am (Come And Take Me)
TTITLE2=Kingston Town
TTITLE3=The Way You Do The Things You Do
TTITLE4=Can't Help Falling In Love
TTITLE5=Higher Ground
TTITLE6=Bring Me Your Cup
TTITLE7=Reggae Music
TTITLE8=Superstition
TTITLE9=Until My Dying Day
EXTD=
EXTT0=
EXTT1=
EXTT2=
EXTT3=
EXTT4=
EXTT5=
EXTT6=
EXTT7=
EXTT8=
EXTT9=
PLAYORDER=
